<svg xml:space="preserve" width="24" height="24" xmlns="http://www.w3.org/2000/svg"><g style="fill:#50dd8e;fill-opacity:1"><path d="M509.626 81.138a16.77 16.77 0 0 0-13.542-11.416l-57.415-8.343-25.676-52.028a16.773 16.773 0 0 0-30.085-.001l-25.677 52.028-57.415 8.343a16.773 16.773 0 0 0-9.298 28.612l41.546 40.499-9.808 57.183a16.777 16.777 0 0 0 24.339 17.685l51.354-27 51.355 27a16.776 16.776 0 0 0 24.339-17.685l-9.808-57.183 41.546-40.498a16.77 16.77 0 0 0 4.245-17.196z" style="fill:#50dd8e;fill-opacity:1" transform="matrix(.03537 0 0 .03516 2.945 3)"/><path d="M500.36 299.326a16.774 16.774 0 0 0-19.874 1.879c-36.233 32.524-81.655 48.663-126.99 48.658-48.689-.003-97.275-18.623-134.208-55.556-71.321-71.321-74.351-186.054-6.897-261.2a16.777 16.777 0 0 0 1.879-19.874 16.781 16.781 0 0 0-18.46-7.599c-45.132 11.371-86.233 34.627-118.861 67.255-100.524 100.524-100.533 263.225 0 363.758 100.411 100.412 263.224 100.532 363.757 0 32.626-32.627 55.883-73.729 67.253-118.86a16.778 16.778 0 0 0-7.599-18.461z" style="fill:#50dd8e;fill-opacity:1" transform="matrix(.03537 0 0 .03516 2.945 3)"/></g></svg>